<?xml version="1.0" encoding="UTF-8" standalone="no"?>
<svg
   xmlns:dc="http://purl.org/dc/elements/1.1/"
   xmlns:cc="http://creativecommons.org/ns#"
   xmlns:rdf="http://www.w3.org/1999/02/22-rdf-syntax-ns#"
   xmlns:svg="http://www.w3.org/2000/svg"
   xmlns="http://www.w3.org/2000/svg"
   xmlns:sodipodi="http://sodipodi.sourceforge.net/DTD/sodipodi-0.dtd"
   xmlns:inkscape="http://www.inkscape.org/namespaces/inkscape"
   inkscape:version="1.0 (4035a4fb49, 2020-05-01)"
   inkscape:export-ydpi="96"
   inkscape:export-xdpi="96"
   inkscape:export-filename="C:\Users\Usuario\Music\github page\fatimanocturnoA430\img\logos\classroom.png"
   sodipodi:docname="classroom.svg"
   viewBox="0 0 512 442"
   height="442"
   width="512"
   id="svg833"
   version="1.1">
  <metadata
     id="metadata839">
    <rdf:RDF>
      <cc:Work
         rdf:about="">
        <dc:format>image/svg+xml</dc:format>
        <dc:type
           rdf:resource="http://purl.org/dc/dcmitype/StillImage" />
        <dc:title></dc:title>
      </cc:Work>
    </rdf:RDF>
  </metadata>
  <defs
     id="defs837">
    <filter
       height="1.0000096"
       y="-4.8000001e-06"
       width="1.0000096"
       x="-4.8000001e-06"
       id="filter866"
       style="color-interpolation-filters:sRGB"
       inkscape:collect="always">
      <feGaussianBlur
         id="feGaussianBlur868"
         stdDeviation="0.00014224826"
         inkscape:collect="always" />
    </filter>
    <filter
       inkscape:collect="always"
       style="color-interpolation-filters:sRGB"
       id="filter866-6"
       x="-4.8000002e-06"
       width="1.0000097"
       y="-4.8000002e-06"
       height="1.0000097">
      <feGaussianBlur
         inkscape:collect="always"
         stdDeviation="0.00014224826"
         id="feGaussianBlur868-0" />
    </filter>
  </defs>
  <sodipodi:namedview
     inkscape:current-layer="g841"
     inkscape:window-maximized="1"
     inkscape:window-y="-8"
     inkscape:window-x="-8"
     inkscape:cy="306.62536"
     inkscape:cx="277.93318"
     inkscape:zoom="0.75989982"
     inkscape:guide-bbox="true"
     showguides="true"
     showgrid="false"
     id="namedview835"
     inkscape:window-height="705"
     inkscape:window-width="1366"
     inkscape:pageshadow="2"
     inkscape:pageopacity="0"
     guidetolerance="10"
     gridtolerance="10"
     objecttolerance="10"
     borderopacity="1"
     bordercolor="#666666"
     pagecolor="#ffffff" />
  <g
     id="g841"
     inkscape:label="Image"
     inkscape:groupmode="layer">
    <path
       d="M -0.360005,0.012906 H 512.36 V 441.98709 H -0.360005 Z"
       style="fill:#f5bb18;fill-opacity:1;fill-rule:evenodd;stroke:#ffffff;stroke-width:0;stroke-linecap:round;stroke-linejoin:round;stroke-miterlimit:4;stroke-dasharray:none"
       id="rect932" />
    <path
       d="M 46.387699,46.387695 H 465.16327 V 395.4007 H 46.387699 Z"
       style="fill:#21a464;fill-opacity:1;fill-rule:evenodd;stroke:#ffffff;stroke-width:0;stroke-linecap:round;stroke-linejoin:round;stroke-miterlimit:4;stroke-dasharray:none"
       id="rect935" />
    <path
       d="m 291.7636,174.11835 a 35.562065,35.562065 0 0 1 -35.56206,35.56206 35.562065,35.562065 0 0 1 -35.56207,-35.56206 35.562065,35.562065 0 0 1 35.56207,-35.56207 35.562065,35.562065 0 0 1 35.56206,35.56207 z"
       style="fill:#ffffff;fill-rule:evenodd;stroke:#ffffff;stroke-width:0.302361;stroke-linecap:round;stroke-linejoin:round"
       id="path845" />
    <path
       d="m 227.2505,234.02737 a 35.562065,35.562065 0 0 1 -35.56207,35.56207 35.562065,35.562065 0 0 1 -35.56206,-35.56207 35.562065,35.562065 0 0 1 35.56206,-35.56206 35.562065,35.562065 0 0 1 35.56207,35.56206"
       transform="matrix(0.73947392,0,0,0.73947392,20.954825,33.272968)"
       style="fill:#5ebe8f;fill-opacity:1;fill-rule:evenodd;stroke:#ffffff;stroke-width:0;stroke-linecap:round;stroke-linejoin:round;stroke-miterlimit:4;stroke-dasharray:none;filter:url(#filter866)"
       id="path845-4" />
    <path
       d="m 227.2505,234.02737 a 35.562065,35.562065 0 0 1 -35.56207,35.56207 35.562065,35.562065 0 0 1 -35.56206,-35.56207 35.562065,35.562065 0 0 1 35.56206,-35.56206 35.562065,35.562065 0 0 1 35.56207,35.56206"
       transform="matrix(0.73947392,0,0,0.73947392,207.72048,33.19071)"
       style="fill:#5ebe8f;fill-opacity:1;fill-rule:evenodd;stroke:#ffffff;stroke-width:0;stroke-linecap:round;stroke-linejoin:round;stroke-miterlimit:4;stroke-dasharray:none;filter:url(#filter866-6)"
       id="path845-4-0" />
    <path
       id="rect891-9"
       style="fill:#5ebe8f;fill-opacity:1;fill-rule:evenodd;stroke:#ffffff;stroke-width:0;stroke-linecap:round;stroke-linejoin:round;stroke-miterlimit:4;stroke-dasharray:none"
       d="m 102.52073,283.27547 c 13.01448,-44.05913 105.98778,-44.05913 118.78095,0 v 19.33027 H 102.52073 Z"
       sodipodi:nodetypes="ccccc" />
    <path
       sodipodi:nodetypes="ccccc"
       d="m 288.99796,283.11263 c 13.01448,-44.05913 105.98778,-44.05913 118.78095,0 V 302.4429 H 288.99796 Z"
       style="fill:#5ebe8f;fill-opacity:1;fill-rule:evenodd;stroke:#ffffff;stroke-width:0;stroke-linecap:round;stroke-linejoin:round;stroke-miterlimit:4;stroke-dasharray:none"
       id="rect891-9-0" />
    <path
       sodipodi:nodetypes="ccccc"
       d="m 174.71404,275.98676 c 17.82283,-60.33729 145.14619,-60.33729 162.66595,0 v 26.47206 H 174.71404 Z"
       style="fill:#ffffff;fill-opacity:1;fill-rule:evenodd;stroke:#ffffff;stroke-width:0;stroke-linecap:round;stroke-linejoin:round;stroke-miterlimit:4;stroke-dasharray:none"
       id="rect891" />
    <rect
       y="373.14105"
       x="302.42105"
       height="21.867369"
       width="104.21895"
       id="rect955"
       style="opacity:1;fill:#ffffff;fill-opacity:1;fill-rule:evenodd;stroke:#ffffff;stroke-width:0;stroke-linecap:round;stroke-linejoin:round;stroke-miterlimit:4;stroke-dasharray:none" />
    <path
       sodipodi:nodetypes="ccccc"
       d="M 302.42105,395.00842 H 407.10526 L 450.84,442.10805 H 350.80842 Z"
       style="opacity:1;fill:#f0ac04;fill-opacity:1;fill-rule:evenodd;stroke:#ffffff;stroke-width:0;stroke-linecap:round;stroke-linejoin:round;stroke-miterlimit:4;stroke-dasharray:none"
       id="rect957" />
  </g>
</svg>
