<?xml version="1.0" encoding="UTF-8" standalone="no"?>
<svg
   xmlns:dc="http://purl.org/dc/elements/1.1/"
   xmlns:cc="http://creativecommons.org/ns#"
   xmlns:rdf="http://www.w3.org/1999/02/22-rdf-syntax-ns#"
   xmlns:svg="http://www.w3.org/2000/svg"
   xmlns="http://www.w3.org/2000/svg"
   xmlns:xlink="http://www.w3.org/1999/xlink"
   xmlns:sodipodi="http://sodipodi.sourceforge.net/DTD/sodipodi-0.dtd"
   xmlns:inkscape="http://www.inkscape.org/namespaces/inkscape"
   sodipodi:docname="logo fatima.svg"
   inkscape:version="1.0 (4035a4fb49, 2020-05-01)"
   id="svg8"
   version="1.1"
   viewBox="0 0 105.83333 105.83334"
   height="400"
   width="400"
   inkscape:export-filename="C:\Users\Usuario\Music\github page\fatimanocturnoA430\img\logos\logofatima-final.png"
   inkscape:export-xdpi="96"
   inkscape:export-ydpi="96">
  <defs
     id="defs2">
    <marker
       inkscape:isstock="true"
       style="overflow:visible"
       id="Arrow1Lstart"
       refX="0.0"
       refY="0.0"
       orient="auto"
       inkscape:stockid="Arrow1Lstart">
      <path
         transform="scale(0.8) translate(12.5,0)"
         style="fill-rule:evenodd;stroke:#001d23;stroke-width:1pt;stroke-opacity:1;fill:#ffffff;fill-opacity:1"
         d="M 0.0,0.0 L 5.0,-5.0 L -12.5,0.0 L 5.0,5.0 L 0.0,0.0 z "
         id="path2094" />
    </marker>
  </defs>
  <sodipodi:namedview
     inkscape:snap-object-midpoints="true"
     inkscape:window-maximized="1"
     inkscape:window-y="-8"
     inkscape:window-x="-8"
     inkscape:window-height="705"
     inkscape:window-width="1366"
     inkscape:guide-bbox="true"
     showguides="true"
     units="px"
     showgrid="false"
     inkscape:document-rotation="0"
     inkscape:current-layer="layer1"
     inkscape:document-units="mm"
     inkscape:cy="199.88264"
     inkscape:cx="283.56292"
     inkscape:zoom="1"
     inkscape:pageshadow="2"
     inkscape:pageopacity="0.0"
     borderopacity="1.0"
     bordercolor="#666666"
     pagecolor="#ffffff"
     id="base">
    <sodipodi:guide
       inkscape:color="rgb(0,0,255)"
       inkscape:locked="false"
       inkscape:label=""
       id="guide866"
       orientation="-1,0"
       position="52.916668,52.916668" />
    <sodipodi:guide
       inkscape:color="rgb(0,0,255)"
       inkscape:locked="false"
       inkscape:label=""
       id="guide868"
       orientation="0,1"
       position="52.916668,52.916668" />
  </sodipodi:namedview>
  <metadata
     id="metadata5">
    <rdf:RDF>
      <cc:Work
         rdf:about="">
        <dc:format>image/svg+xml</dc:format>
        <dc:type
           rdf:resource="http://purl.org/dc/dcmitype/StillImage" />
        <dc:title />
      </cc:Work>
    </rdf:RDF>
  </metadata>
  <g
     id="layer1"
     inkscape:groupmode="layer"
     inkscape:label="Capa 1">
    <circle
       style="fill:#ee1d23;fill-opacity:1;stroke:#001d23;stroke-width:0;stroke-linecap:round;stroke-linejoin:round;stroke-miterlimit:4;stroke-dasharray:none;stroke-opacity:0"
       id="path1052"
       cx="52.916668"
       cy="52.916668"
       r="52.363541" />
    <circle
       r="41.414364"
       cy="52.916664"
       cx="52.916664"
       id="path912"
       style="opacity:1;fill:#ffffff;fill-opacity:1;stroke:none;stroke-width:0;stroke-linecap:round;stroke-linejoin:round;stroke-opacity:0" />
    <rect
       y="46.837727"
       x="25.031975"
       height="1.6544402"
       width="55.402889"
       id="rect1489"
       style="opacity:1;fill:#000000;fill-opacity:1;stroke:#001d23;stroke-width:0.200362;stroke-linecap:round;stroke-linejoin:round;stroke-miterlimit:4;stroke-dasharray:none;stroke-opacity:0" />
    <text
       transform="scale(1.0570081,0.94606654)"
       id="text1529"
       y="32.594246"
       x="61.007656"
       style="font-style:normal;font-weight:normal;font-size:10.5833px;line-height:1.25;font-family:sans-serif;letter-spacing:0px;word-spacing:0px;opacity:1;fill:#000000;fill-opacity:1;stroke:none;stroke-width:0.25803"
       xml:space="preserve"><tspan
         style="font-style:normal;font-variant:normal;font-weight:bold;font-stretch:normal;font-size:10.5833px;font-family:'Century Gothic';-inkscape-font-specification:'Century Gothic Bold';fill:#000000;fill-opacity:1;stroke-width:0.25803"
         y="32.594246"
         x="61.007656"
         id="tspan1527"
         sodipodi:role="line">F</tspan></text>
    <path
       sodipodi:nodetypes="sssss"
       d="m 46.32783,48.643052 c -0.501499,0.538565 -2.122454,-0.132528 -3.051884,-0.982216 -1.048813,-0.958829 -1.851046,-1.826908 -0.92375,-2.549083 0.818513,-0.637455 1.92122,0.491108 2.595856,1.216077 0.857874,0.921877 1.806329,1.857144 1.379778,2.315222 z"
       style="opacity:1;fill:#ff1400;fill-opacity:1;stroke:#ff1400;stroke-width:0.1;stroke-linecap:round;stroke-linejoin:round;stroke-miterlimit:4;stroke-dasharray:none;stroke-opacity:1"
       id="path1535" />
    <rect
       y="19.634064"
       x="52.079872"
       height="65.953667"
       width="1.7535229"
       id="rect1506"
       style="opacity:1;fill:#000000;fill-opacity:1;stroke:#001d23;stroke-width:0.163154;stroke-linecap:round;stroke-linejoin:round;stroke-miterlimit:4;stroke-dasharray:none;stroke-opacity:0" />
    <path
       sodipodi:nodetypes="ccccsccc"
       id="path1538"
       d="m 42.848492,44.975208 c -1.554707,-0.337735 -5.067585,-11.799336 5.3039,-13.593921 8.310995,-1.188345 12.42193,8.498488 12.324273,14.788504 -0.262642,19.932244 -24.625624,28.905729 -24.625624,28.905729 0,0 29.649239,-8.360233 29.897916,-31.380523 0.05583,-5.167886 -3.608986,-16.333329 -16.271874,-15.252289 -12.558339,1.678725 -10.382736,14.499256 -7.453809,17.226855 0.274101,0.0375 0.783597,-0.248336 0.825218,-0.694355 z"
       style="fill:#ff1400;stroke:#ff1400;stroke-width:0.1;stroke-linecap:butt;stroke-linejoin:miter;stroke-miterlimit:4;stroke-dasharray:none;stroke-opacity:1;fill-opacity:1" />
    <path
       sodipodi:nodetypes="cscsc"
       id="path1540"
       d="m 58.836718,42.531771 c 0,0 -0.626182,-7.855796 -7.408333,-9.491928 -5.609926,-1.353344 -8.301303,3.141927 -8.301303,3.141927 0,0 4.621412,-1.474069 8.003647,-0.429948 5.597467,1.727979 7.705989,6.779949 7.705989,6.779949 z"
       style="fill:#f5552e;stroke:#f6552d;stroke-width:0.1;stroke-linecap:butt;stroke-linejoin:miter;stroke-miterlimit:4;stroke-dasharray:none;stroke-opacity:1;fill-opacity:1" />
    <text
       xml:space="preserve"
       style="font-style:normal;font-weight:normal;font-size:10.5833px;line-height:1.25;font-family:sans-serif;letter-spacing:0px;word-spacing:0px;opacity:1;fill:#000000;fill-opacity:1;stroke:none;stroke-width:0.25803"
       x="35.627251"
       y="32.594246"
       id="text1529-6"
       transform="scale(1.0570081,0.94606654)"><tspan
         sodipodi:role="line"
         id="tspan1527-0"
         x="35.627251"
         y="32.594246"
         style="font-style:normal;font-variant:normal;font-weight:bold;font-stretch:normal;font-size:10.5833px;font-family:'Century Gothic';-inkscape-font-specification:'Century Gothic Bold';fill:#000000;fill-opacity:1;stroke-width:0.25803">I</tspan></text>
    <circle
       style="opacity:0;fill:#ffffff;fill-opacity:1;stroke:#001d23;stroke-width:0.20043;stroke-linecap:round;stroke-linejoin:round;stroke-miterlimit:4;stroke-dasharray:none;stroke-opacity:1;marker-start:url(#Arrow1Lstart)"
       id="path1434-6"
       cx="52.916668"
       cy="52.916668"
       r="42.251053" />
    <text
       xml:space="preserve"
       style="font-style:normal;font-weight:normal;font-size:13.2342px;line-height:1.25;font-family:sans-serif;letter-spacing:0px;word-spacing:0px;fill:#000000;fill-opacity:1;stroke:none;stroke-width:0.4864"
       x="35.400501"
       y="69.143852"
       id="text1533-5"
       transform="scale(1.0260284,0.97463189)"><tspan
         sodipodi:role="line"
         id="tspan1531-2"
         x="35.400501"
         y="69.143852"
         style="font-style:normal;font-variant:normal;font-weight:bold;font-stretch:normal;font-size:13.2342px;font-family:'Century Gothic';-inkscape-font-specification:'Century Gothic Bold';stroke-width:0.4864">s</tspan></text>
    <circle
       r="43.561642"
       cy="52.916668"
       cx="52.916668"
       id="path1052-9"
       style="fill:#ffff00;fill-opacity:1;stroke:#001d23;stroke-width:0;stroke-linecap:round;stroke-linejoin:round;stroke-miterlimit:4;stroke-dasharray:none;stroke-opacity:0;opacity:0" />
    <ellipse
       ry="37.043556"
       rx="39.475708"
       cy="44.901279"
       cx="-19.644308"
       id="path872"
       style="opacity:0;fill:#ffff00;stroke:#001d23;stroke-width:0;stroke-linecap:round;stroke-linejoin:round;stroke-opacity:1;fill-opacity:1" />
    <ellipse
       ry="53.881538"
       rx="66.416473"
       cy="41.159508"
       cx="185.77905"
       id="path874"
       style="opacity:0;fill:#00ff00;fill-opacity:1;stroke:#001d23;stroke-width:0;stroke-linecap:round;stroke-linejoin:round;stroke-opacity:1" />
    <path
       inkscape:transform-center-y="25.51506"
       inkscape:transform-center-x="0.0059300773"
       transform="scale(0.26458333)"
       d="M 27.017578,218.84961 A 174.00715,174.00715 0 0 0 200,374.00781 174.00715,174.00715 0 0 0 372.98242,218.84961 Z"
       style="opacity:0;fill:#00ff00;fill-opacity:1;stroke:#001d23;stroke-width:0;stroke-linecap:round;stroke-linejoin:round;stroke-opacity:1"
       id="path876" />
    <text
       transform="matrix(1.0346327,-0.31611591,0.30865686,1.0325956,-18.151609,16.342753)"
       inkscape:transform-center-y="34.972733"
       inkscape:transform-center-x="-0.28844518"
       id="text880"
       style="font-style:normal;font-weight:normal;font-size:5.45134px;line-height:1.25;font-family:sans-serif;letter-spacing:0.00978824px;word-spacing:0px;fill:#ffffff;fill-opacity:1;stroke:none;stroke-width:0.264583;"
       xml:space="preserve"><textPath
         style="font-size:5.45134px;fill:#ffffff;"
         id="textPath907"
         xlink:href="#path876">Villa Soldati - Buenos Aires - Argentina</textPath></text>
    <g
       inkscape:transform-center-y="-21.730759"
       inkscape:transform-center-x="0.12149225"
       style="font-style:normal;font-weight:normal;font-size:8.99583px;line-height:1.25;font-family:sans-serif;letter-spacing:0px;word-spacing:0px;fill:#ffffff;fill-opacity:1;stroke:none;stroke-width:0.264583"
       id="text1071"
       transform="rotate(172.02496,52.922446,52.66961)"
       aria-label="Instituto Nuestra Señora de Fátima">
      <path
         id="path862"
         style="font-style:normal;font-variant:normal;font-weight:bold;font-stretch:normal;font-size:8.99583px;font-family:Arimo;-inkscape-font-specification:'Arimo Bold';fill:#ffffff;stroke-width:0.264583"
         d="m 96.478958,53.518675 6.186572,0.174119 -0.0365,1.295273 -6.186577,-0.174119 z" />
      <path
         id="path864"
         style="font-style:normal;font-variant:normal;font-weight:bold;font-stretch:normal;font-size:8.99583px;font-family:Arimo;-inkscape-font-specification:'Arimo Bold';fill:#ffffff;stroke-width:0.264583"
         d="m 96.053386,59.099922 2.647318,0.31712 q 1.242975,0.148895 1.343806,-0.692839 0.0533,-0.444854 -0.297594,-0.765592 -0.347043,-0.315853 -0.944543,-0.387427 l -2.529563,-0.303014 0.146805,-1.22553 3.663505,0.438848 q 0.37943,0.04545 0.62087,0.0611 0.24528,0.02053 0.43875,0.03044 l -0.14002,1.168832 q -0.0844,0.0032 -0.44903,-0.0184 -0.36024,-0.02103 -0.49544,-0.03723 l -0.002,0.01744 q 0.51102,0.313377 0.71033,0.717707 0.1993,0.40433 0.13713,0.923326 -0.0899,0.750146 -0.60022,1.096009 -0.510365,0.345863 -1.400073,0.239285 L 95.907103,60.32109 Z" />
      <path
         id="path866"
         style="font-style:normal;font-variant:normal;font-weight:bold;font-stretch:normal;font-size:8.99583px;font-family:Arimo;-inkscape-font-specification:'Arimo Bold';fill:#ffffff;stroke-width:0.264583"
         d="m 96.070916,65.714262 q -0.669823,-0.164058 -0.918999,-0.808469 -0.245955,-0.639099 -0.0087,-1.607569 0.233025,-0.951405 0.656022,-1.385958 0.426219,-0.429242 1.102664,-0.439933 l -0.100247,1.092461 q -0.350457,0.0091 -0.540274,0.19328 -0.190862,0.188414 -0.324616,0.734512 -0.123305,0.503434 -0.05174,0.765167 0.07156,0.261734 0.344613,0.328611 0.221852,0.05434 0.395822,-0.102035 0.177191,-0.151061 0.375461,-0.572821 0.44922,-0.966288 0.706606,-1.2786 0.261654,-0.311267 0.580681,-0.432111 0.322248,-0.115533 0.723289,-0.01731 0.66129,0.161968 0.90385,0.759535 0.245783,0.602878 0.01694,1.537217 -0.201677,0.823413 -0.643916,1.244209 -0.443284,0.425062 -1.079415,0.400404 l 0.149268,-1.0895 q 0.294121,0.01777 0.479759,-0.149311 0.189904,-0.166037 0.296489,-0.601209 0.104496,-0.426639 0.04582,-0.667127 -0.05441,-0.239443 -0.310395,-0.302141 -0.20052,-0.04911 -0.359688,0.08375 -0.155945,0.138176 -0.327831,0.507608 -0.243636,0.514663 -0.4655,0.90351 -0.218644,0.394159 -0.442419,0.606167 -0.22482,0.216276 -0.517377,0.302902 -0.289335,0.09194 -0.686109,-0.0052 z" />
      <path
         id="path868"
         style="font-style:normal;font-variant:normal;font-weight:bold;font-stretch:normal;font-size:8.99583px;font-family:Arimo;-inkscape-font-specification:'Arimo Bold';fill:#ffffff;stroke-width:0.264583"
         d="m 93.91113,67.454191 q 0.177967,-0.514774 0.55227,-0.696759 0.378455,-0.180549 0.947198,0.01608 l 2.648597,0.915668 0.196624,-0.568742 0.788767,0.272691 -0.216718,0.626862 0.928158,0.729869 -0.252598,0.730647 -1.054457,-0.364545 -0.294219,0.851038 -0.788767,-0.272691 0.294219,-0.851038 -2.333089,-0.806591 q -0.327961,-0.113382 -0.528771,-0.04338 -0.196659,0.07144 -0.287077,0.332978 -0.04736,0.136997 -0.07679,0.410325 l -0.722345,-0.249727 q 0.0081,-0.480544 0.198999,-1.032681 z" />
      <path
         id="path870"
         style="font-style:normal;font-variant:normal;font-weight:bold;font-stretch:normal;font-size:8.99583px;font-family:Arimo;-inkscape-font-specification:'Arimo Bold';fill:#ffffff;stroke-width:0.264583"
         d="m 98.530702,71.319226 0.838731,0.351083 -0.476591,1.138567 -0.838731,-0.351083 z m -5.174201,-2.165861 4.384092,1.83513 -0.476591,1.138568 -4.384092,-1.835131 z" />
      <path
         id="path873"
         style="font-style:normal;font-variant:normal;font-weight:bold;font-stretch:normal;font-size:8.99583px;font-family:Arimo;-inkscape-font-specification:'Arimo Bold';fill:#ffffff;stroke-width:0.264583"
         d="m 91.752951,72.497648 q 0.241743,-0.488083 0.636085,-0.621187 0.398277,-0.131153 0.93753,0.135934 l 2.511267,1.243806 0.267086,-0.539253 0.74787,0.370412 -0.294381,0.59436 0.828224,0.841564 -0.343119,0.692763 -0.999783,-0.495183 -0.399656,0.806912 -0.747869,-0.370413 0.399656,-0.806911 -2.212119,-1.095642 q -0.310956,-0.154013 -0.519016,-0.110011 -0.204124,0.04595 -0.326945,0.293929 -0.06433,0.129893 -0.128151,0.397292 L 91.42474,73.4968 q 0.06892,-0.475644 0.328211,-0.999152 z" />
      <path
         id="path875"
         style="font-style:normal;font-variant:normal;font-weight:bold;font-stretch:normal;font-size:8.99583px;font-family:Arimo;-inkscape-font-specification:'Arimo Bold';fill:#ffffff;stroke-width:0.264583"
         d="M 94.444837,77.640085 92.1825,76.229167 q -1.062218,-0.662457 -1.508505,0.05314 -0.23709,0.380162 -0.05695,0.813464 0.181545,0.439355 0.692155,0.757799 l 2.161707,1.348159 -0.65316,1.047309 -3.130747,-1.952506 q -0.514337,-0.320768 -0.920548,-0.53269 l 0.622942,-0.998858 q 0.564592,0.28999 0.829215,0.455024 l 0.01162,-0.01864 q -0.328264,-0.494619 -0.334757,-0.949042 -0.0088,-0.450696 0.267788,-0.894218 0.399799,-0.641058 1.004988,-0.739886 0.608917,-0.0965 1.369241,0.377676 l 2.560504,1.596871 z" />
      <path
         id="path877"
         style="font-style:normal;font-variant:normal;font-weight:bold;font-stretch:normal;font-size:8.99583px;font-family:Arimo;-inkscape-font-specification:'Arimo Bold';fill:#ffffff;stroke-width:0.264583"
         d="m 87.211792,79.653651 q 0.331802,-0.431941 0.744469,-0.486048 0.416151,-0.05143 0.893375,0.315157 l 2.222401,1.707174 0.366588,-0.477224 0.661843,0.508406 -0.404049,0.525992 0.649309,0.986196 -0.470945,0.613077 -0.884781,-0.679659 -0.548543,0.714094 -0.661844,-0.508406 0.548544,-0.714094 -1.957664,-1.503812 q -0.275188,-0.21139 -0.487831,-0.208569 -0.20916,0.0055 -0.377737,0.224949 -0.0883,0.114952 -0.20276,0.3649 l -0.606109,-0.465593 q 0.15985,-0.45325 0.515734,-0.91654 z" />
      <path
         id="path879"
         style="font-style:normal;font-variant:normal;font-weight:bold;font-stretch:normal;font-size:8.99583px;font-family:Arimo;-inkscape-font-specification:'Arimo Bold';fill:#ffffff;stroke-width:0.264583"
         d="m 84.836467,86.045671 q -0.843598,-0.789234 -0.886607,-1.707677 -0.0398,-0.915441 0.734427,-1.743001 0.759225,-0.811522 1.672493,-0.823282 0.913268,-0.01176 1.753658,0.774473 0.837182,0.783232 0.882986,1.692258 0.04901,0.912028 -0.728219,1.742795 -0.795236,0.850013 -1.677461,0.86074 -0.882019,0.01694 -1.751277,-0.796306 z m 0.882261,-0.943034 q 0.619066,0.579172 1.087183,0.638171 0.468117,0.059 0.828224,-0.325912 0.768228,-0.821145 -0.40896,-1.922472 -0.580575,-0.543161 -1.071352,-0.629374 -0.49057,-0.08 -0.844675,0.298491 -0.77723,0.830767 0.40958,1.941096 z" />
      <path
         id="path881"
         style="font-style:normal;font-variant:normal;font-weight:bold;font-stretch:normal;font-size:8.99583px;font-family:Arimo;-inkscape-font-specification:'Arimo Bold';fill:#ffffff;stroke-width:0.264583"
         d="m 77.457943,88.929958 4.974901,2.288561 q -0.470015,-0.516714 -0.716626,-0.858761 l -2.134732,-2.960847 0.933504,-0.673044 3.619539,5.020257 -1.200729,0.865709 -5.030088,-2.297508 q 0.452033,0.491773 0.770573,0.933584 L 80.77819,94.166 79.844685,94.839044 76.225147,89.818787 Z" />
      <path
         id="path883"
         style="font-style:normal;font-variant:normal;font-weight:bold;font-stretch:normal;font-size:8.99583px;font-family:Arimo;-inkscape-font-specification:'Arimo Bold';fill:#ffffff;stroke-width:0.264583"
         d="m 76.3442,95.190959 -1.24769,-2.356295 q -0.585819,-1.106333 -1.331138,-0.711677 -0.395951,0.209662 -0.457798,0.674825 -0.06367,0.471102 0.21793,1.002918 l 1.192192,2.251485 -1.090806,0.577596 -1.726622,-3.260771 q -0.283659,-0.535698 -0.528487,-0.922969 l 1.040342,-0.550874 q 0.342575,0.534323 0.488515,0.809936 l 0.01941,-0.01028 q -0.03544,-0.592578 0.187172,-0.988792 0.218733,-0.394158 0.680675,-0.638762 0.667682,-0.353547 1.240642,-0.135057 0.575015,0.222372 0.994338,1.014274 l 1.41213,2.666845 z" />
      <path
         id="path885"
         style="font-style:normal;font-variant:normal;font-weight:bold;font-stretch:normal;font-size:8.99583px;font-family:Arimo;-inkscape-font-specification:'Arimo Bold';fill:#ffffff;stroke-width:0.264583"
         d="m 68.396824,93.553644 q 1.000868,-0.383341 1.764454,0.0015 0.765157,0.388968 1.200344,1.525199 0.421047,1.099315 0.101726,1.898944 -0.319321,0.799629 -1.320189,1.18297 -0.955748,0.36606 -1.7038,-0.0765 -0.746481,-0.438454 -1.214661,-1.660826 l -0.01257,-0.03281 2.846732,-1.090324 q -0.248229,-0.648103 -0.613397,-0.889236 -0.367699,-0.235461 -0.810707,-0.06579 -0.611186,0.23409 -0.568492,0.824509 l -1.123144,0.32199 q 0.0098,-1.386638 1.453702,-1.939655 z m 1.484663,3.876314 q 0.40609,-0.155536 0.519189,-0.523406 0.108998,-0.366299 -0.07351,-0.879651 l -1.722806,0.65985 q 0.238625,0.524783 0.566351,0.704999 0.329296,0.184318 0.710775,0.03821 z" />
      <path
         id="path887"
         style="font-style:normal;font-variant:normal;font-weight:bold;font-stretch:normal;font-size:8.99583px;font-family:Arimo;-inkscape-font-specification:'Arimo Bold';fill:#ffffff;stroke-width:0.264583"
         d="m 62.00371,96.998956 q -0.170588,-0.66819 0.280646,-1.191393 0.448064,-0.517861 1.414173,-0.764507 0.949085,-0.242299 1.531606,-0.07368 0.579351,0.173963 0.90723,0.76573 l -1.011027,0.425848 q -0.17304,-0.304894 -0.424865,-0.385671 -0.25608,-0.07969 -0.800847,0.05939 -0.502206,0.128212 -0.699433,0.314565 -0.197227,0.186353 -0.127689,0.458737 0.0565,0.221311 0.276361,0.301183 0.21669,0.08521 0.68213,0.06159 1.063993,-0.05857 1.460702,0.02149 0.397795,0.08431 0.654597,0.308888 0.253633,0.229917 0.355768,0.62998 0.168415,0.659678 -0.244605,1.154992 -0.416189,0.500656 -1.34825,0.73861 -0.821406,0.209706 -1.400847,0.01763 -0.583698,-0.190987 -0.861411,-0.763828 l 1.031491,-0.381205 q 0.122784,0.267857 0.357585,0.352981 0.235887,0.08938 0.669998,-0.02145 0.425599,-0.108654 0.610148,-0.273637 0.185636,-0.160727 0.120443,-0.416087 -0.05107,-0.200031 -0.243219,-0.27791 -0.19532,-0.07254 -0.602172,-0.05027 -0.568761,0.02734 -1.016271,0.01465 -0.45068,-0.0073 -0.743072,-0.104965 -0.296648,-0.09653 -0.5108,-0.313866 -0.217322,-0.211987 -0.31837,-0.607794 z" />
      <path
         id="path889"
         style="font-style:normal;font-variant:normal;font-weight:bold;font-stretch:normal;font-size:8.99583px;font-family:Arimo;-inkscape-font-specification:'Arimo Bold';fill:#ffffff;stroke-width:0.264583"
         d="m 59.452049,95.912751 q 0.537926,-0.08544 0.874744,0.159054 0.337506,0.248828 0.4319,0.843151 l 0.439587,2.76772 0.594323,-0.09439 0.130911,0.824238 -0.655056,0.10404 -0.206747,1.16252 -0.763509,0.12127 -0.175008,-1.10189 -0.889314,0.14125 -0.130911,-0.82424 0.889314,-0.14125 -0.387222,-2.438023 q -0.05443,-0.342712 -0.210758,-0.48689 -0.155637,-0.13984 -0.428938,-0.09643 -0.143158,0.02274 -0.398137,0.125501 l -0.119887,-0.754833 q 0.427738,-0.219153 1.004708,-0.310791 z" />
      <path
         id="path891"
         style="font-style:normal;font-variant:normal;font-weight:bold;font-stretch:normal;font-size:8.99583px;font-family:Arimo;-inkscape-font-specification:'Arimo Bold';fill:#ffffff;stroke-width:0.264583"
         d="m 57.692805,96.233842 0.301639,3.624456 q 0.03242,0.389582 0.06705,0.646752 0.03061,0.26192 0.0605,0.46218 l -1.173133,0.0976 q -0.01969,-0.0777 -0.07509,-0.4786 -0.05504,-0.39652 -0.06597,-0.52784 l -0.01751,0.001 q -0.137942,0.51395 -0.26126,0.72697 -0.122953,0.21739 -0.307543,0.32972 -0.184225,0.11671 -0.473131,0.14076 -0.236377,0.0197 -0.386295,-0.034 l -0.08561,-1.02868 q 0.303125,0.0409 0.530748,0.0219 0.459623,-0.0382 0.686922,-0.431816 0.222922,-0.393205 0.162084,-1.124225 L 56.462766,96.33621 Z" />
      <path
         id="path893"
         style="font-style:normal;font-variant:normal;font-weight:bold;font-stretch:normal;font-size:8.99583px;font-family:Arimo;-inkscape-font-specification:'Arimo Bold';fill:#ffffff;stroke-width:0.264583"
         d="m 53.107188,96.396909 q 0.689561,0.0092 1.071105,0.38763 0.381486,0.382857 0.372439,1.063634 -0.0098,0.737874 -0.493682,1.118017 -0.488268,0.380085 -1.401943,0.376729 l -1.023595,0.004 -0.0032,0.241566 q -0.0062,0.465567 0.153344,0.691717 0.159473,0.23055 0.52841,0.23546 0.342584,0.005 0.507193,-0.15141 0.160159,-0.15162 0.204474,-0.511248 l 1.28607,0.07859 q -0.127809,0.692376 -0.646413,1.041306 -0.523055,0.35327 -1.414653,0.34142 -0.900382,-0.012 -1.38201,-0.46205 -0.481629,-0.45008 -0.470772,-1.267012 l 0.023,-1.73049 q 0.0053,-0.399682 -0.08049,-0.554573 -0.09025,-0.150558 -0.301071,-0.153359 -0.140547,-0.0019 -0.272661,0.02273 l 0.0089,-0.667601 q 0.110153,-0.02489 0.198287,-0.04569 0.08813,-0.02079 0.176152,-0.0328 0.08802,-0.01201 0.189152,-0.01945 0.09674,-0.0075 0.228506,-0.0057 0.465564,0.0062 0.686526,0.237553 0.21657,0.231308 0.254596,0.675495 l 0.02635,3.5e-4 q 0.530701,-0.928631 1.576022,-0.91474 z m -1.466629,2.269202 0.63258,-3.79e-4 q 0.43066,-0.01185 0.611787,-0.08851 0.181069,-0.07227 0.279797,-0.229104 0.09434,-0.15689 0.09784,-0.420417 0.0045,-0.338192 -0.147011,-0.507135 -0.155956,-0.164609 -0.415091,-0.168053 -0.289879,-0.0039 -0.529154,0.151112 -0.243667,0.154905 -0.383499,0.429799 -0.139891,0.279285 -0.144036,0.591125 z" />
      <path
         id="path895"
         style="font-style:normal;font-variant:normal;font-weight:bold;font-stretch:normal;font-size:8.99583px;font-family:Arimo;-inkscape-font-specification:'Arimo Bold';fill:#ffffff;stroke-width:0.264583"
         d="m 41.43878,96.875902 q 0.177233,-0.891806 0.934884,-1.233858 0.752487,-0.338599 2.032034,-0.08431 1.167533,0.23203 1.748807,0.777476 0.581274,0.545446 0.603877,1.423225 l -1.26809,-0.04153 q -0.02904,-0.507353 -0.34727,-0.798994 -0.319082,-0.287333 -0.96101,-0.414907 -1.331246,-0.264565 -1.492212,0.545384 -0.05137,0.258494 0.07033,0.457339 0.117396,0.197988 0.375171,0.365655 0.253466,0.166811 1.010195,0.482901 0.649022,0.294684 0.897297,0.44255 0.247418,0.152174 0.437144,0.324231 0.18887,0.176366 0.302842,0.391587 0.113971,0.215221 0.150477,0.482223 0.0322,0.266143 -0.03202,0.589263 -0.163535,0.82287 -0.866089,1.13557 -0.707719,0.31615 -1.888177,0.0815 -1.128759,-0.22433 -1.62293,-0.68976 -0.498479,-0.4663 -0.500371,-1.31309 l 1.265549,0.07685 q 0.01687,0.410888 0.270442,0.667288 0.249267,0.25554 0.792105,0.36342 1.154609,0.22947 1.29845,-0.49432 0.04709,-0.23695 -0.04357,-0.411714 -0.09497,-0.175618 -0.314829,-0.331271 -0.220713,-0.151345 -0.925742,-0.45716 -0.837756,-0.359063 -1.180894,-0.592957 -0.348302,-0.230442 -0.526068,-0.485212 -0.178623,-0.250462 -0.236724,-0.56654 -0.05896,-0.311769 0.01639,-0.690894 z" />
      <path
         id="path897"
         style="font-style:normal;font-variant:normal;font-weight:bold;font-stretch:normal;font-size:8.99583px;font-family:Arimo;-inkscape-font-specification:'Arimo Bold';fill:#ffffff;stroke-width:0.264583"
         d="m 39.021514,94.122607 q 1.016178,0.340691 1.360686,1.123314 0.343111,0.786788 -0.04366,1.940401 -0.374202,1.11613 -1.129165,1.530137 -0.754964,0.414007 -1.771142,0.07332 -0.970367,-0.325332 -1.266199,-1.142597 -0.297227,-0.8131 0.118862,-2.05417 l 0.01117,-0.03332 2.890278,0.969014 q 0.220611,-0.658017 0.09216,-1.076339 -0.134013,-0.415553 -0.583797,-0.566351 -0.620535,-0.208045 -0.963076,0.274742 l -1.071522,-0.465799 q 0.889441,-1.06384 2.355403,-0.572352 z m -1.319478,3.935608 q 0.412301,0.138231 0.733536,-0.07373 0.31707,-0.213359 0.502702,-0.725589 l -1.749159,-0.586435 q -0.149595,0.556742 -0.0113,0.90424 0.136903,0.351663 0.524217,0.481516 z" />
      <path
         id="path899"
         style="font-style:normal;font-variant:normal;font-weight:bold;font-stretch:normal;font-size:8.99583px;font-family:Arimo;-inkscape-font-specification:'Arimo Bold';fill:#ffffff;stroke-width:0.264583"
         d="m 33.328425,91.84819 -1.147358,2.406747 q -0.538709,1.130021 0.226533,1.494832 0.404429,0.192801 0.820561,-0.03703 0.410278,-0.227761 0.669236,-0.770964 l 1.096322,-2.299693 1.114161,0.531149 -1.587776,3.330589 q -0.164448,0.344954 -0.256515,0.568699 -0.09792,0.225819 -0.169196,0.405949 l -1.062616,-0.506576 q 0.02402,-0.08101 0.161081,-0.41955 0.135173,-0.33458 0.193769,-0.457495 l -0.01586,-0.0076 q -0.46039,0.383916 -0.907231,0.443397 -0.44684,0.05948 -0.918674,-0.165454 -0.681977,-0.325116 -0.846394,-0.919303 -0.164416,-0.594188 0.221186,-1.403046 l 1.298574,-2.723945 z m -2.097344,4.756737 q 0.17446,0.08317 0.31697,0.243563 0.138545,0.158504 0.2616,0.329088 0.121164,0.174548 0.23592,0.321711 0.11079,0.145272 0.22974,0.201979 0.162565,0.0775 0.293269,0.02789 0.12674,-0.0515 0.327796,-0.330341 l 0.543203,0.258959 q -0.245314,0.432921 -0.446325,0.609596 -0.206867,0.178749 -0.451633,0.222644 -0.246657,0.04786 -0.547996,-0.0958 -0.178424,-0.08506 -0.320935,-0.245454 -0.14251,-0.160394 -0.263674,-0.334943 -0.123055,-0.170583 -0.229881,-0.313966 -0.11079,-0.145272 -0.225775,-0.200088 -0.158599,-0.07561 -0.291194,-0.02203 -0.13845,0.05565 -0.333835,0.322595 l -0.535273,-0.255178 q 0.324518,-0.609271 0.679056,-0.771148 0.350574,-0.163768 0.758967,0.03092 z" />
      <path
         id="path901"
         style="font-style:normal;font-variant:normal;font-weight:bold;font-stretch:normal;font-size:8.99583px;font-family:Arimo;-inkscape-font-specification:'Arimo Bold';fill:#ffffff;stroke-width:0.264583"
         d="m 26.09044,90.294264 q 0.624682,-0.971761 1.520422,-1.179215 0.893364,-0.203759 1.84665,0.409047 0.934812,0.600931 1.110596,1.497199 0.175784,0.896267 -0.446523,1.864333 -0.619933,0.964371 -1.505907,1.172881 -0.88835,0.212205 -1.845331,-0.402977 -0.97915,-0.629433 -1.148336,-1.49535 -0.175256,-0.864598 0.468429,-1.865918 z m 1.086303,0.698315 q -0.458417,0.713117 -0.432282,1.184213 0.02614,0.471096 0.469524,0.756122 0.945896,0.608056 1.817602,-0.747975 0.429914,-0.668779 0.426476,-1.167059 -0.0095,-0.49696 -0.445508,-0.777236 -0.956981,-0.615181 -1.835812,0.751935 z" />
      <path
         id="path903"
         style="font-style:normal;font-variant:normal;font-weight:bold;font-stretch:normal;font-size:8.99583px;font-family:Arimo;-inkscape-font-specification:'Arimo Bold';fill:#ffffff;stroke-width:0.264583"
         d="m 26.614804,87.662698 -2.270717,2.84104 q -0.244074,0.305378 -0.395583,0.516047 -0.157682,0.211357 -0.27354,0.37742 L 22.7554,90.662238 q 0.03907,-0.06999 0.274216,-0.399372 0.232404,-0.325952 0.314676,-0.428888 l -0.01373,-0.01097 q -0.453314,0.278719 -0.689264,0.348797 -0.238692,0.07351 -0.449998,0.02833 -0.214049,-0.04175 -0.440509,-0.222748 -0.185285,-0.14809 -0.257379,-0.290058 l 0.644467,-0.806334 q 0.192186,0.237952 0.370609,0.380558 0.360277,0.287953 0.795823,0.158103 0.432115,-0.132593 0.890098,-0.705605 l 1.456221,-1.821972 z" />
      <path
         id="path905"
         style="font-style:normal;font-variant:normal;font-weight:bold;font-stretch:normal;font-size:8.99583px;font-family:Arimo;-inkscape-font-specification:'Arimo Bold';fill:#ffffff;stroke-width:0.264583"
         d="m 23.171081,84.630751 q 0.494439,0.480737 0.511305,1.017884 0.0138,0.540297 -0.460808,1.028438 -0.514419,0.529081 -1.12715,0.472459 -0.61588,-0.05968 -1.277057,-0.690285 l -0.746034,-0.700853 -0.168411,0.173211 q -0.324574,0.333825 -0.364213,0.607734 -0.0427,0.277058 0.22184,0.534268 0.245645,0.238837 0.472401,0.238757 0.220546,8e-6 0.499975,-0.230676 l 0.879875,0.941261 q -0.56883,0.414914 -1.185321,0.311751 -0.622702,-0.103076 -1.262009,-0.724666 -0.645605,-0.627714 -0.685913,-1.285676 -0.04031,-0.657963 0.529227,-1.243732 l 1.206436,-1.240822 q 0.278643,-0.286586 0.322828,-0.458052 0.03797,-0.171378 -0.113193,-0.318355 -0.100777,-0.09798 -0.213628,-0.170949 l 0.465427,-0.478693 q 0.0971,0.05766 0.1754,0.103149 0.0783,0.04549 0.150468,0.09729 0.07217,0.05179 0.15073,0.11592 0.07541,0.06107 0.169887,0.152927 0.333825,0.324574 0.335214,0.6445 -0.0018,0.316864 -0.279531,0.665563 l 0.0189,0.01837 q 1.023827,-0.309481 1.773359,0.419279 z m -2.625131,0.639502 0.459622,0.434632 q 0.320879,0.287481 0.505117,0.356336 0.181175,0.072 0.360692,0.02599 0.176368,-0.04907 0.360089,-0.23803 0.235776,-0.242496 0.241907,-0.469339 -8e-5,-0.226757 -0.185888,-0.407416 -0.207854,-0.202093 -0.488148,-0.254068 -0.283444,-0.05504 -0.573979,0.04845 -0.293598,0.106632 -0.511001,0.330232 z" />
      <path
         id="path907"
         style="font-style:normal;font-variant:normal;font-weight:bold;font-stretch:normal;font-size:8.99583px;font-family:Arimo;-inkscape-font-specification:'Arimo Bold';fill:#ffffff;stroke-width:0.264583"
         d="m 16.944024,77.510555 q -0.04328,0.05269 -0.242036,0.227766 -0.204879,0.174068 -0.347624,0.27651 l 0.01025,0.01427 q 0.932504,-0.177224 1.585575,0.732771 0.48404,0.674467 0.223244,1.41851 -0.264364,0.746604 -1.210046,1.425286 -0.959956,0.688925 -1.757567,0.677431 -0.803742,-0.0125 -1.313393,-0.722656 -0.294522,-0.41039 -0.335797,-0.829515 -0.04384,-0.422694 0.179934,-0.826583 l -0.0051,-0.0071 -0.630091,0.463006 -1.4096,1.01162 -0.719659,-1.002779 4.453624,-3.196206 q 0.356861,-0.256106 0.821704,-0.63296 z m -1.918736,1.447293 q -0.624506,0.448186 -0.808853,0.899474 -0.190476,0.45028 0.101485,0.857101 0.2894,0.403253 0.758571,0.363909 0.465601,-0.03678 1.1365,-0.518263 1.313248,-0.942471 0.747253,-1.731134 -0.284278,-0.396115 -0.786658,-0.365377 -0.505948,0.0333 -1.148298,0.49429 z" />
      <path
         id="path909"
         style="font-style:normal;font-variant:normal;font-weight:bold;font-stretch:normal;font-size:8.99583px;font-family:Arimo;-inkscape-font-specification:'Arimo Bold';fill:#ffffff;stroke-width:0.264583"
         d="m 14.746463,73.742739 q 0.515672,0.939559 0.238035,1.748325 -0.281487,0.81088 -1.348118,1.396294 -1.031974,0.566394 -1.867551,0.358589 -0.835577,-0.207806 -1.351249,-1.147365 -0.4924249,-0.897201 -0.155523,-1.69841 0.33305,-0.799095 1.480544,-1.428891 l 0.0308,-0.01691 1.466707,2.672351 q 0.608403,-0.333919 0.797728,-0.728442 0.183361,-0.396262 -0.04489,-0.812132 -0.314898,-0.573747 -0.894055,-0.451292 L 12.62741,72.565828 q 1.375133,-0.178518 2.119053,1.176911 z m -3.638865,1.997172 q 0.209228,0.381215 0.589047,0.443325 0.377706,0.05826 0.861527,-0.192252 l -0.887633,-1.617273 q -0.487528,0.307662 -0.621582,0.656819 -0.137906,0.351271 0.05864,0.709381 z" />
      <path
         id="path911"
         style="font-style:normal;font-variant:normal;font-weight:bold;font-stretch:normal;font-size:8.99583px;font-family:Arimo;-inkscape-font-specification:'Arimo Bold';fill:#ffffff;stroke-width:0.264583"
         d="m 6.9515553,69.213303 1.8160176,-0.608107 -1.0056084,-3.003093 0.9496606,-0.318001 1.0056084,3.003093 2.1533975,-0.721081 0.411448,1.228727 -5.8687356,1.965191 -1.4491362,-4.32762 0.9496606,-0.318001 z" />
      <path
         id="path913"
         style="font-style:normal;font-variant:normal;font-weight:bold;font-stretch:normal;font-size:8.99583px;font-family:Arimo;-inkscape-font-specification:'Arimo Bold';fill:#ffffff;stroke-width:0.264583"
         d="m 10.48717,62.465987 q 0.13814,0.675644 -0.150225,1.129139 Q 10.044276,64.0495 9.3772384,64.185881 8.6542559,64.3337 8.1796443,63.942051 7.7041528,63.546099 7.5125316,62.652738 l -0.2222251,-0.999189 -0.2366907,0.04839 q -0.4561675,0.09327 -0.6430889,0.297369 -0.1912248,0.204982 -0.1173152,0.566473 0.06863,0.335671 0.2561106,0.463224 0.1822969,0.124129 0.5431001,0.09071 l 0.1975552,1.273234 Q 6.5862731,64.415779 6.1347467,63.983543 5.678037,63.547884 5.4994221,62.67428 5.3190475,61.79207 5.6560314,61.225517 5.9930153,60.658965 6.7934602,60.495308 l 1.695566,-0.346671 q 0.3916156,-0.08007 0.5246394,-0.196934 0.1278405,-0.120289 0.085606,-0.326855 -0.028156,-0.137711 -0.080373,-0.261536 l 0.654127,-0.133741 q 0.047818,0.102307 0.086932,0.183977 0.039115,0.08167 0.069623,0.1651 0.030508,0.08343 0.059352,0.18065 0.027964,0.09292 0.05436,0.22202 0.093267,0.456168 -0.08564,0.721398 -0.1797864,0.260927 -0.6056379,0.392829 l 0.00528,0.02582 q 1.0204636,0.320395 1.2298746,1.344621 z m -2.5298261,-0.948819 0.1353092,0.61794 q 0.1034417,0.41822 0.2169791,0.578825 0.1092338,0.161484 0.2835159,0.224485 0.1734022,0.0587 0.4316103,0.0059 0.3313669,-0.06775 0.464103,-0.251807 0.1275527,-0.18748 0.07564,-0.441385 -0.058072,-0.284028 -0.2605099,-0.48474 -0.203318,-0.205015 -0.5017126,-0.282991 -0.3026981,-0.07709 -0.6082443,-0.01462 z m -2.6384462,2.050345 -0.1334075,0.02728 -1.4611274,-0.83107 -0.227008,-1.110294 0.185049,-0.03784 1.4869149,1.220333 z" />
      <path
         id="path915"
         style="font-style:normal;font-variant:normal;font-weight:bold;font-stretch:normal;font-size:8.99583px;font-family:Arimo;-inkscape-font-specification:'Arimo Bold';fill:#ffffff;stroke-width:0.264583"
         d="m 9.6592177,57.382136 q 0.05954,0.541405 -0.2008227,0.86611 -0.2647289,0.325184 -0.8628945,0.390966 l -2.7856176,0.306343 0.065782,0.598166 -0.8295726,0.09123 -0.072504,-0.659292 -1.1512618,-0.262262 -0.084508,-0.768446 1.1090077,-0.121961 -0.098433,-0.895065 0.8295726,-0.09123 0.098433,0.895065 2.4537886,-0.26985 q 0.3449275,-0.03793 0.4964372,-0.187164 0.1471436,-0.148751 0.1168934,-0.42382 -0.015845,-0.144084 -0.1062616,-0.403698 l 0.759714,-0.08355 q 0.1983866,0.437756 0.262248,1.018457 z" />
      <path
         id="path917"
         style="font-style:normal;font-variant:normal;font-weight:bold;font-stretch:normal;font-size:8.99583px;font-family:Arimo;-inkscape-font-specification:'Arimo Bold';fill:#ffffff;stroke-width:0.264583"
         d="m 3.8294696,55.871861 -0.9082485,0.04259 -0.057814,-1.232936 0.9082484,-0.04259 z M 9.4325291,55.609127 4.685066,55.831741 4.6272522,54.598805 9.3747153,54.376191 Z" />
      <path
         id="path919"
         style="font-style:normal;font-variant:normal;font-weight:bold;font-stretch:normal;font-size:8.99583px;font-family:Arimo;-inkscape-font-specification:'Arimo Bold';fill:#ffffff;stroke-width:0.264583"
         d="m 9.4273916,50.318493 -2.6593461,-0.19167 q -1.2486222,-0.08999 -1.3004078,0.628512 -0.02684,0.372397 0.3372669,0.636449 0.3644227,0.259672 0.9690187,0.303247 l 2.5410556,0.183145 -0.08873,1.231097 -3.6801495,-0.265243 q -0.3811584,-0.02747 -0.6230678,-0.03169 -0.2459749,-0.0089 -0.4396919,-0.0097 l 0.084625,-1.174143 q 0.084189,-0.0071 0.4494014,-0.0028 0.3608315,0.004 0.4966466,0.01378 l 0.00126,-0.01753 Q 4.9884355,51.354957 4.7674062,50.999927 4.5466926,50.640516 4.5807954,50.167354 q 0.07831,-1.08652 1.1289923,-1.244199 l 0.00189,-0.02629 Q 5.177027,48.616119 4.9603788,48.261405 4.7437306,47.906691 4.7813068,47.385336 4.8311978,46.693118 5.3305684,46.363587 5.825558,46.03374 6.7061652,46.097209 l 3.0098365,0.216931 -0.088099,1.222336 -2.6593461,-0.19167 q -1.2486222,-0.08999 -1.3004078,0.628512 -0.025893,0.359252 0.307862,0.616714 0.3296895,0.252764 0.9414689,0.318877 l 2.5980103,0.187249 z" />
      <path
         id="path921"
         style="font-style:normal;font-variant:normal;font-weight:bold;font-stretch:normal;font-size:8.99583px;font-family:Arimo;-inkscape-font-specification:'Arimo Bold';fill:#ffffff;stroke-width:0.264583"
         d="M 10.330012,44.10122 Q 10.178781,44.774055 9.7297402,45.069309 9.2764143,45.3636 8.6121502,45.214295 7.8921737,45.052468 7.6200379,44.500574 7.3488654,43.944395 7.5406513,43.051068 l 0.2072962,-1.002391 -0.2357066,-0.05298 q -0.4542709,-0.102105 -0.7084757,0.0073 -0.2584903,0.108477 -0.3394037,0.468465 -0.075134,0.334275 0.043506,0.527518 0.1153179,0.187995 0.4580658,0.305552 L 6.6237017,44.546756 Q 5.9725888,44.278851 5.7381581,43.699415 5.5004051,43.11473 5.6959459,42.244759 5.8934132,41.366216 6.4331776,40.987806 6.972942,40.609396 7.7700589,40.788561 l 1.6885164,0.379523 q 0.3899874,0.08766 0.5592477,0.03566 0.165938,-0.05725 0.212174,-0.262954 0.03082,-0.137138 0.03401,-0.271485 l 0.651408,0.146415 q 0.0016,0.112919 0.0038,0.203447 0.0022,0.09053 -0.0042,0.179129 -0.0064,0.0886 -0.01999,0.189096 -0.01262,0.09621 -0.04152,0.224776 -0.102105,0.454271 -0.374081,0.622746 -0.271013,0.16419 -0.7134884,0.109757 l -0.00578,0.02571 q 0.799163,0.710871 0.569909,1.730838 z M 8.4122116,42.197981 8.282074,42.81703 q -0.077257,0.42384 -0.03961,0.616887 0.033361,0.192084 0.1664503,0.321044 0.1340524,0.124674 0.3911869,0.182469 0.3299892,0.07417 0.526555,-0.03922 0.1932434,-0.11864 0.2500755,-0.371489 0.063575,-0.282848 -0.03869,-0.548946 Q 9.4367402,42.70739 9.1966099,42.513852 8.952194,42.319351 8.6479182,42.25096 Z" />
    </g>
  </g>
</svg>
