<?xml version="1.0" encoding="UTF-8" standalone="no"?>
<svg
   xmlns:dc="http://purl.org/dc/elements/1.1/"
   xmlns:cc="http://creativecommons.org/ns#"
   xmlns:rdf="http://www.w3.org/1999/02/22-rdf-syntax-ns#"
   xmlns:svg="http://www.w3.org/2000/svg"
   xmlns="http://www.w3.org/2000/svg"
   xmlns:xlink="http://www.w3.org/1999/xlink"
   xmlns:sodipodi="http://sodipodi.sourceforge.net/DTD/sodipodi-0.dtd"
   xmlns:inkscape="http://www.inkscape.org/namespaces/inkscape"
   version="1.1"
   viewBox="0 0 398 398"
   id="svg170"
   sodipodi:docname="logo pacto.svg"
   width="398"
   height="398"
   inkscape:version="1.0 (4035a4fb49, 2020-05-01)">
  <metadata
     id="metadata176">
    <rdf:RDF>
      <cc:Work
         rdf:about="">
        <dc:format>image/svg+xml</dc:format>
        <dc:type
           rdf:resource="http://purl.org/dc/dcmitype/StillImage" />
        <dc:title></dc:title>
      </cc:Work>
    </rdf:RDF>
  </metadata>
  <defs
     id="defs174">
    <linearGradient
       id="linearGradient3789"
       inkscape:collect="always">
      <stop
         id="stop3785"
         offset="0"
         style="stop-color:#be993a;stop-opacity:1" />
      <stop
         id="stop3787"
         offset="1"
         style="stop-color:#e2ea89;stop-opacity:1" />
    </linearGradient>
    <linearGradient
       id="linearGradient3570"
       inkscape:collect="always">
      <stop
         id="stop3566"
         offset="0"
         style="stop-color:#107996;stop-opacity:1" />
      <stop
         id="stop3568"
         offset="1"
         style="stop-color:#098d3c;stop-opacity:1" />
    </linearGradient>
    <linearGradient
       id="linearGradient3562"
       inkscape:collect="always">
      <stop
         id="stop3558"
         offset="0"
         style="stop-color:#098d3c;stop-opacity:1" />
      <stop
         id="stop3560"
         offset="1"
         style="stop-color:#174b6b;stop-opacity:1" />
    </linearGradient>
    <linearGradient
       id="linearGradient3554"
       inkscape:collect="always">
      <stop
         id="stop3550"
         offset="0"
         style="stop-color:#174b6b;stop-opacity:1" />
      <stop
         id="stop3552"
         offset="1"
         style="stop-color:#242a72;stop-opacity:1" />
    </linearGradient>
    <linearGradient
       id="linearGradient3512"
       inkscape:collect="always">
      <stop
         id="stop3508"
         offset="0"
         style="stop-color:#1a7e59;stop-opacity:0.99607843" />
      <stop
         id="stop3510"
         offset="1"
         style="stop-color:#0d5f60;stop-opacity:0.98823529" />
    </linearGradient>
    <linearGradient
       id="linearGradient1025"
       inkscape:collect="always">
      <stop
         id="stop1021"
         offset="0"
         style="stop-color:#186196;stop-opacity:0.99215686" />
      <stop
         id="stop1023"
         offset="1"
         style="stop-color:#23457c;stop-opacity:1" />
    </linearGradient>
    <linearGradient
       inkscape:collect="always"
       id="linearGradient1071-3">
      <stop
         style="stop-color:#128170;stop-opacity:0.98039216"
         offset="0"
         id="stop1067" />
      <stop
         style="stop-color:#0b8d34;stop-opacity:1"
         offset="1"
         id="stop1069" />
    </linearGradient>
    <linearGradient
       inkscape:collect="always"
       xlink:href="#linearGradient1071-3"
       id="linearGradient1073"
       x1="-490.57312"
       y1="682.96863"
       x2="348.58374"
       y2="682.96863"
       gradientUnits="userSpaceOnUse"
       gradientTransform="matrix(0.23833447,0,0,1.3164082,209.10589,-1010.0595)" />
    <linearGradient
       gradientUnits="userSpaceOnUse"
       y2="226.00002"
       x2="-66.611434"
       y1="226.00002"
       x1="-163"
       id="linearGradient3556"
       xlink:href="#linearGradient3554"
       inkscape:collect="always" />
    <linearGradient
       gradientUnits="userSpaceOnUse"
       y2="226"
       x2="-161"
       y1="226"
       x1="-310"
       id="linearGradient3564"
       xlink:href="#linearGradient3562"
       inkscape:collect="always" />
    <linearGradient
       gradientUnits="userSpaceOnUse"
       y2="226"
       x2="-308"
       y1="226"
       x1="-457"
       id="linearGradient3572"
       xlink:href="#linearGradient3570"
       inkscape:collect="always" />
    <clipPath
       id="clipPath3765"
       clipPathUnits="userSpaceOnUse">
      <g
         stroke-width="2"
         fill="none"
         stroke-linecap="butt"
         id="g3773"
         transform="matrix(1.2148883,0,0,0.18690895,-563.47097,177.30416)">
        <path
           style="fill:none;stroke:#000000;stroke-width:0.823121;stroke-miterlimit:4;stroke-dasharray:none;stroke-opacity:1"
           sodipodi:nodetypes="cccccccccccccccccccccccccccccccc"
           stroke="#074521"
           vector-effect="non-scaling-stroke"
           d="m 148.84233,266.70824 c -0.55811,0.55522 -2.679,3.10176 -3.05233,3.60176 -19.17,25.68 -17.01,61.28 6.77,83.28 21.29,19.69 53.47717,20.37913 80.01717,12.03913 8.27865,-2.57674 16.55157,-5.61532 23.04913,-9.02 10.20673,-5.63637 20.06981,-12.23628 27.1637,-19.10913 25.31545,-26.27546 39.64797,-60.75354 52.50466,-88.44788 5.13938,-8.9961 4.51487,-12.65416 16.15913,-22.19185 20.98797,-13.04203 35.03,2.98 38.44,22.99 6.43268,39.09484 -3.15986,94.65225 -54.81482,132.2076 -22.84,16.61 -51.25897,27.75213 -79.54897,28.97213 -24.54855,0.22492 -52.19168,0.22369 -90.23555,-22.79819 C 133.44445,367.34181 110.1,337.51 100.24,300.5 96.581217,283.11374 95.444074,265.12176 96.455665,249.83347 97.368998,241.02014 99.21,233.25667 101.67,225.67 127.28407,144.61067 212.49254,97.594806 288.16092,110.06115 c 11.47109,1.56546 19.64281,5.42748 21.5446,6.1901 L 311.78,111.91 c -83.04951,-38.899545 -158.00027,15.39807 -177.23499,37.76785 -67.976175,74.73738 -48.086766,158.42819 -10.0869,209.66679 11.66268,13.35386 24.16856,25.78553 36.89971,34.05837 57.18491,40.77178 135.67281,32.6034 177.99584,2.07425 C 386.84366,364.06726 413.14,311.63 404.77,254.54 403.53,246.11333 402.99297,239.60299 399.41098,230.79295 388.95663,208.4474 374.65905,196.32218 352.25,190.21 c -13.42222,-2.23166 -26.32374,-2.71027 -37.27717,0.23277 -22.04,5.15 -34.78283,19.86723 -45.93283,38.35723 -5.91333,9.8 -12.77333,21.61 -20.58,35.43 -17.71614,27.27155 -27.19712,51.44156 -58.34003,65.57788 -14,6.14 -31.54848,7.5142 -44.23865,-5.23825 -13.00086,-15.84275 -7.61767,-38.61076 2.99535,-52.7675 z"
           id="path3767" />
        <path
           transform="matrix(0.82312094,0,0,0.82312094,84.505917,96.731379)"
           d="m 193.57227,90.453125 c -20.80977,-0.156066 -40.27627,5.131389 -54.97266,13.613285 -37.69798,19.99706 -64.945669,62.3312 -61.214844,107.35742 1.25244,19.6925 5.934601,45.1783 37.617184,62.57422 3.15201,-13.41186 9.65389,-28.79902 14.78321,-40.25586 6.62752,5.24856 15.09572,12.85673 21.92773,18.58984 3.67773,-3.23449 4.98477,-4.76228 8.13086,-7.12109 -4.05678,-3.7777 -22.08057,-16.33729 -25.61133,-20.25782 5.32932,-9.17637 13.17099,-20.26846 19.65039,-28.68359 3.1354,3.15665 20.09645,19.41293 24.41992,23.53711 2.60318,-3.48325 5.71508,-10.02281 7.64063,-13.38281 -4.54349,-3.3035 -18.63183,-15.75809 -24.12695,-20.42578 3.87312,-4.04132 23.56396,-24.28641 27.67578,-27.98243 3.5299,3.11217 11.33055,10.03122 15.57422,13.66602 2.14566,-3.07692 3.36713,-5.2343 4.82226,-7.50976 -3.76516,-3.85034 -9.50812,-10.11607 -11.68359,-12.42774 5.37424,-5.87977 27.58028,-19.09708 33.07031,-22.52344 l -16.66992,-13.85937 c 6.70627,-2.95306 20.84928,-4.29305 34.13476,-4.91602 7.42894,-0.57735 3.0206,-4.06506 0.69727,-5.32422 C 231.34156,94.966628 211.93382,90.590831 193.57227,90.453125 Z m 8.10351,8.935547 c 11.02308,0.01619 21.77331,1.340398 32.42383,3.972658 3.70945,0.92332 2.24805,1.40731 -1.55859,1.76367 -8.42323,0.78564 -15.0326,1.66125 -23.26954,3.72656 -0.43154,0.1115 -0.93469,0.058 -1.23437,-0.27734 l -6.95117,-7.49805 c -1.58293,-1.688782 -1.62369,-1.687498 0.58984,-1.687498 z m -11.36719,1.716798 c 0.14824,0.0318 0.21778,0.154 0.43946,0.40625 l 7.5039,8.58594 c 0.99338,1.12067 1.11111,0.91188 -0.31445,1.3125 -9.97018,2.75374 -19.61641,6.35613 -28.90625,10.91601 -0.8354,0.34494 -0.72054,0.41801 -1.27344,-0.29687 l -8.27343,-10.72266 c -0.72919,-1.07018 -0.72854,-1.03512 0.35546,-1.53516 9.63227,-4.81844 19.53508,-7.58145 29.56055,-8.52929 0.533,-0.10977 0.75996,-0.16849 0.9082,-0.13672 z m -40.96875,14.49023 c 0.12927,-0.0192 0.24079,0.11461 0.50977,0.47852 l 8.41601,10.70898 c 0.50444,0.81527 0.47346,0.80809 -0.27343,1.31055 -9.16835,5.97725 -17.3886,12.66061 -25.94141,19.48828 -0.54231,0.44258 -1.34886,0.3317 -1.76172,-0.24219 -2.0863,-3.12726 -3.52865,-5.41968 -5.98437,-8.99023 -1.45703,-1.90702 -1.09145,-1.82571 0.94531,-3.81445 2.49695,-3.60051 17.34953,-15.75712 23.47461,-18.50391 0.3404,-0.24395 0.48597,-0.41638 0.61523,-0.43555 z m 55.86328,2.41016 c 0.21795,0.0336 0.36543,0.18716 0.72071,0.49023 l 10.38281,9.29688 c 0.80232,0.84242 0.79076,0.82189 -0.11133,1.32422 -8.89298,4.62468 -17.38156,9.72453 -25.6914,15.35351 -0.72964,0.48053 -0.75771,0.46456 -1.16797,0.0547 l -13.44141,-13.57227 c -0.81841,-0.86764 -0.82975,-0.79122 0.26953,-1.36523 9.32224,-4.75426 17.89977,-8.26775 27.90235,-11.35351 0.63062,-0.17552 0.91882,-0.2621 1.13671,-0.22852 z m -39.6914,17.08789 a 1.2270372,1.2148883 52.4 0 1 0.91992,0.37695 l 14.75,15.33203 a 1.2148883,1.2270372 48.4 0 1 -0.10937,1.78516 c -9.04687,7.43512 -17.65236,15.36026 -25.81641,23.77539 a 1.2270372,1.2148883 46.8 0 1 -1.81055,-0.0606 L 137.4082,157.00977 a 1.2027394,1.2027394 0 0 1 0.13477,-1.67579 c 8.51232,-7.5323 17.63941,-14.22265 27.38281,-20.07031 a 1.2270372,1.2148883 52.4 0 1 0.58594,-0.16992 z m -50.3418,12.4082 c 0.24642,-0.0222 0.50678,0.20303 0.88477,0.77539 1.97635,3.05904 2.97305,5.06805 4.89062,8.36524 0.26826,0.46176 0.21838,0.98682 -0.13672,1.3789 -6.84387,7.52421 -12.61071,14.90383 -17.92382,23.57813 -0.79826,1.20132 -1.16233,2.15653 -2.23047,-0.004 -0.59861,-0.54706 -1.830727,-3.51661 -2.408206,-4.58398 -0.763473,-1.41114 -0.609042,-1.75199 0.1875,-3.00977 4.163026,-8.47992 10.029246,-18.46119 15.933596,-25.79101 0.32385,-0.41695 0.55632,-0.68673 0.80273,-0.70899 z m 12.13086,18.19336 c 0.23772,-0.023 0.468,0.0925 0.69531,0.38086 l 16.46289,20.82422 c 0.33733,0.42894 0.34641,1.0289 0.0234,1.46875 -5.61285,7.70844 -12.30924,18.61628 -18.10937,27.82422 -5.28778,-5.58292 -15.75958,-18.31006 -20.31836,-24.9082 6.55775,-9.04321 12.94494,-16.43064 20.50586,-25.13868 0.25853,-0.26578 0.50251,-0.42813 0.74023,-0.45117 z m -34.552733,20.92188 c 0.793273,1.58075 0.613559,1.73917 2.173828,5.625 -2.158274,4.0371 -1.588433,2.74903 -5.402344,10.33593 -0.692219,-2.26575 -0.169616,-9.53478 3.228516,-15.96093 z m 7.236328,14.24219 c 5.776685,7.43877 15.542615,17.97762 21.613285,24.80078 -6.40183,9.22685 -9.92429,18.84095 -15.34766,29.48046 -3.88592,-2.98984 -15.547871,-21.24278 -14.830078,-38.88476 1.502695,-2.95755 6.177963,-11.42893 8.564453,-15.39648 z"
           style="opacity:1;mix-blend-mode:darken;fill:url(#linearGradient3775);fill-opacity:1;stroke:#000000;stroke-width:0.6;stroke-miterlimit:4;stroke-dasharray:none;stroke-opacity:1"
           id="path3769" />
        <path
           sodipodi:nodetypes="ccccccc"
           stroke="#103049"
           vector-effect="non-scaling-stroke"
           d="m 314.74229,134.49861 c 0.48667,19.14 10.06868,35.21158 26.60202,44.77158 l 0.0354,0.0193 c 21.68,10.99 42.39032,-2.19324 43.74032,-25.82324 1.12,-19.47 -12.64131,-40.86335 -30.83131,-47.79335 -16.05,-6.119997 -31.09495,1.22711 -37.24495,16.40711 -1.3889,4.19293 -2.36926,8.65582 -2.30148,12.4186 z"
           id="path3771"
           style="fill:url(#linearGradient3777);fill-opacity:1;stroke-width:0.823121;stroke-miterlimit:4;stroke-dasharray:none" />
      </g>
    </clipPath>
    <linearGradient
       y2="182.30041"
       x2="253.16807"
       y1="182.30041"
       x1="76.743002"
       gradientUnits="userSpaceOnUse"
       id="linearGradient3775"
       xlink:href="#linearGradient3512"
       inkscape:collect="always" />
    <linearGradient
       y2="123.61361"
       x2="376.54138"
       y1="157.36157"
       x1="321.73547"
       gradientUnits="userSpaceOnUse"
       id="linearGradient3777"
       xlink:href="#linearGradient1025"
       inkscape:collect="always" />
    <linearGradient
       gradientTransform="translate(-1.3661164,-2)"
       gradientUnits="userSpaceOnUse"
       y2="151.90561"
       x2="203.28847"
       y1="151.90561"
       x1="77.408574"
       id="linearGradient3791"
       xlink:href="#linearGradient3789"
       inkscape:collect="always" />
    <clipPath
       id="clipPath4001"
       clipPathUnits="userSpaceOnUse">
      <use
         height="100%"
         width="100%"
         id="use4003"
         xlink:href="#g3997"
         y="0"
         x="0" />
    </clipPath>
  </defs>
  <sodipodi:namedview
     inkscape:snap-object-midpoints="true"
     inkscape:snap-bbox="true"
     inkscape:snap-nodes="false"
     inkscape:object-nodes="true"
     inkscape:snap-others="false"
     inkscape:document-rotation="0"
     pagecolor="#ffffff"
     bordercolor="#666666"
     borderopacity="1"
     objecttolerance="10"
     gridtolerance="10"
     guidetolerance="10"
     inkscape:pageopacity="0"
     inkscape:pageshadow="2"
     inkscape:window-width="1366"
     inkscape:window-height="705"
     id="namedview172"
     showgrid="false"
     showguides="false"
     inkscape:zoom="1"
     inkscape:cx="113.83145"
     inkscape:cy="182.58758"
     inkscape:window-x="-8"
     inkscape:window-y="-8"
     inkscape:window-maximized="1"
     inkscape:current-layer="svg170" />
  <g
     inkscape:label="Clip"
     id="g3997">
    <g
       clip-path="url(#clipPath3765)"
       transform="matrix(1,0,0,6.4998936,460.80572,-1269.976)"
       id="g3577">
      <path
         d="m -457,193 h 149 v 66 h -149 z"
         style="opacity:1;fill:url(#linearGradient3572);fill-opacity:1;stroke:#000000;stroke-width:0;stroke-linecap:round;stroke-linejoin:round;stroke-miterlimit:4;stroke-dasharray:none;stroke-opacity:1"
         id="rect3518" />
      <path
         d="m -310,193 h 149 v 66 h -149 z"
         style="opacity:1;fill:url(#linearGradient3564);fill-opacity:1;stroke:#000000;stroke-width:0;stroke-linecap:round;stroke-linejoin:round;stroke-miterlimit:4;stroke-dasharray:none;stroke-opacity:1"
         id="rect3518-6" />
      <path
         d="m -163,193.00002 h 96.388565 v 66 H -163 Z"
         style="opacity:1;fill:url(#linearGradient3556);fill-opacity:1;stroke:#000000;stroke-width:0;stroke-linecap:round;stroke-linejoin:round;stroke-miterlimit:4;stroke-dasharray:none;stroke-opacity:1"
         id="rect3518-6-5" />
    </g>
  </g>
  <path
     sodipodi:nodetypes="csccc"
     id="path3779"
     d="m 270.38388,22.353553 c 0,0 -70.9254,-24.9215292 -144.3421,13.941126 C 70.900291,65.483469 25.014223,113.23337 14.026558,188.43691 13.107778,104.25154 96.337106,41.736287 123.39013,31.698485 205.84802,-7.9997595 270.38388,22.353553 270.38388,22.353553 Z"
     style="fill:#dabd53;fill-opacity:1;stroke:#000000;stroke-width:0;stroke-linecap:butt;stroke-linejoin:miter;stroke-miterlimit:4;stroke-dasharray:none;stroke-opacity:1" />
  <path
     sodipodi:nodetypes="ccccccc"
     id="path3781"
     d="m 65.382044,246.61427 c 0,0 -2.760344,33.01691 27.139403,39.61428 45.919243,7.35312 73.498053,-34.1383 89.103553,-55.60355 26.51712,-34.85797 44.48684,-105.6714 96.09119,-115.80854 -44.42379,12.92588 -60.65577,85.46908 -88.4723,120.86793 -15.29017,24.96685 -51.48986,66.72071 -92.076312,58.54232 -40.859295,-7.38146 -31.785534,-47.61244 -31.785534,-47.61244 z"
     style="fill:#dabd53;fill-opacity:1;stroke:#000000;stroke-width:0;stroke-linecap:butt;stroke-linejoin:miter;stroke-miterlimit:4;stroke-dasharray:none;stroke-opacity:1" />
  <path
     sodipodi:nodetypes="ccc"
     id="path3783"
     d="M 76.644183,211.46047 C 87.661671,86.636568 192.1441,81.975249 242.5491,101.6492 162.22729,63.143019 69.859037,117.22284 76.644183,211.46047 Z"
     style="fill:url(#linearGradient3791);fill-opacity:1;stroke:#000000;stroke-width:0;stroke-linecap:butt;stroke-linejoin:miter;stroke-miterlimit:4;stroke-dasharray:none;stroke-opacity:1" />
</svg>
